<svg xmlns="http://www.w3.org/2000/svg" xmlns:xlink="http://www.w3.org/1999/xlink" width="500" zoomAndPan="magnify" viewBox="0 0 375 374.999991" height="500" preserveAspectRatio="xMidYMid meet" version="1.0"><defs><clipPath id="1eb1cf3927"><path d="M 11.121094 11.121094 L 363.878906 11.121094 L 363.878906 363.878906 L 11.121094 363.878906 Z M 11.121094 11.121094 " clip-rule="nonzero"/></clipPath><clipPath id="f6fb2519cb"><path d="M 187.5 11.121094 C 90.089844 11.121094 11.121094 90.089844 11.121094 187.5 C 11.121094 284.910156 90.089844 363.878906 187.5 363.878906 C 284.910156 363.878906 363.878906 284.910156 363.878906 187.5 C 363.878906 90.089844 284.910156 11.121094 187.5 11.121094 Z M 187.5 11.121094 " clip-rule="nonzero"/></clipPath><clipPath id="fa6c64ebd6"><path d="M 230 158 L 304.625 158 L 304.625 232 L 230 232 Z M 230 158 " clip-rule="nonzero"/></clipPath><clipPath id="89ea755573"><path d="M 90 188 L 273 188 L 273 265.796875 L 90 265.796875 Z M 90 188 " clip-rule="nonzero"/></clipPath><clipPath id="2783dafb9b"><path d="M 70.625 109.046875 L 119 109.046875 L 119 183 L 70.625 183 Z M 70.625 109.046875 " clip-rule="nonzero"/></clipPath></defs><rect x="-37.5" width="450" fill="#ffffff" y="-37.499999" height="449.999989" fill-opacity="1"/><rect x="-37.5" width="450" fill="#ffffff" y="-37.499999" height="449.999989" fill-opacity="1"/><g clip-path="url(#1eb1cf3927)"><g clip-path="url(#f6fb2519cb)"><path fill="#bad1c2" d="M 11.121094 11.121094 L 363.878906 11.121094 L 363.878906 363.878906 L 11.121094 363.878906 Z M 11.121094 11.121094 " fill-opacity="1" fill-rule="nonzero"/></g></g><path fill="#153462" d="M 156.0625 165.484375 C 154.96875 163.847656 152.78125 163.300781 150.957031 164.394531 L 125.414062 180.777344 C 124.320312 181.507812 123.773438 182.597656 123.773438 183.871094 C 123.773438 185.148438 124.320312 186.238281 125.414062 186.96875 L 150.957031 203.351562 C 151.503906 203.71875 152.234375 203.898438 152.964844 203.898438 C 154.238281 203.898438 155.335938 203.351562 156.0625 202.261719 C 157.160156 200.621094 156.613281 198.253906 154.96875 197.164062 L 134.171875 183.871094 L 154.96875 170.582031 C 156.613281 169.492188 157.160156 167.125 156.0625 165.484375 Z M 156.0625 165.484375 " fill-opacity="1" fill-rule="nonzero"/><path fill="#153462" d="M 220.644531 180.777344 L 195.105469 164.394531 C 193.464844 163.300781 191.089844 163.847656 189.996094 165.484375 C 188.902344 167.125 189.449219 169.492188 191.089844 170.582031 L 211.890625 183.871094 L 191.089844 197.164062 C 189.449219 198.253906 188.902344 200.441406 189.996094 202.261719 C 190.726562 203.351562 191.820312 203.898438 193.097656 203.898438 C 193.828125 203.898438 194.375 203.71875 195.105469 203.351562 L 220.644531 186.96875 C 221.742188 186.238281 222.289062 185.148438 222.289062 183.871094 C 222.289062 182.597656 221.742188 181.507812 220.644531 180.777344 Z M 220.644531 180.777344 " fill-opacity="1" fill-rule="nonzero"/><path fill="#153462" d="M 165.734375 207.539062 C 167.191406 207.539062 168.652344 206.628906 169.199219 205.171875 L 183.792969 165.121094 C 184.523438 163.300781 183.429688 161.117188 181.605469 160.386719 C 179.78125 159.660156 177.589844 160.75 176.863281 162.574219 L 162.265625 202.625 C 161.539062 204.445312 162.632812 206.628906 164.457031 207.359375 C 164.820312 207.539062 165.367188 207.539062 165.734375 207.539062 Z M 165.734375 207.539062 " fill-opacity="1" fill-rule="nonzero"/><g clip-path="url(#fa6c64ebd6)"><path fill="#153462" d="M 297.449219 183.691406 C 297.269531 182.960938 296.902344 182.417969 296.722656 181.6875 C 297.632812 180.230469 297.996094 178.59375 297.996094 176.953125 C 297.996094 174.589844 297.085938 172.402344 295.445312 170.582031 L 291.976562 167.125 C 290.335938 165.484375 287.964844 164.574219 285.59375 164.574219 C 283.949219 164.574219 282.308594 165.121094 280.847656 165.847656 C 280.121094 165.484375 279.570312 165.304688 278.84375 165.121094 C 277.929688 161.117188 274.464844 158.203125 270.085938 158.203125 L 265.160156 158.203125 C 260.964844 158.203125 257.316406 161.117188 256.402344 165.121094 C 255.671875 165.304688 255.125 165.667969 254.394531 165.847656 C 252.9375 164.9375 251.292969 164.574219 249.652344 164.574219 C 247.28125 164.574219 245.09375 165.484375 243.269531 167.125 L 239.800781 170.582031 C 238.160156 172.222656 237.246094 174.589844 237.246094 176.953125 C 237.246094 178.59375 237.792969 180.230469 238.523438 181.6875 C 238.160156 182.417969 237.976562 182.960938 237.792969 183.691406 C 233.78125 184.601562 230.863281 188.058594 230.863281 192.429688 L 230.863281 197.34375 C 230.863281 201.53125 233.78125 205.171875 237.792969 206.082031 C 237.976562 206.8125 238.34375 207.359375 238.523438 208.085938 C 237.613281 209.542969 237.246094 211.179688 237.246094 212.820312 C 237.246094 215.1875 238.160156 217.371094 239.800781 219.191406 L 243.269531 222.652344 C 244.910156 224.289062 247.28125 225.199219 249.652344 225.199219 C 251.292969 225.199219 252.9375 224.652344 254.394531 223.925781 C 255.125 224.289062 255.671875 224.472656 256.402344 224.652344 C 257.316406 228.660156 260.78125 231.570312 265.160156 231.570312 L 270.085938 231.570312 C 274.28125 231.570312 277.929688 228.660156 278.84375 224.652344 C 279.570312 224.472656 280.121094 224.105469 280.847656 223.925781 C 282.308594 224.835938 283.949219 225.199219 285.59375 225.199219 C 287.964844 225.199219 290.152344 224.289062 291.976562 222.652344 L 295.445312 219.191406 C 297.085938 217.554688 297.996094 215.1875 297.996094 212.820312 C 297.996094 211.179688 297.449219 209.542969 296.722656 208.085938 C 297.085938 207.359375 297.269531 206.8125 297.449219 206.082031 C 301.464844 205.171875 304.382812 201.714844 304.382812 197.34375 L 304.382812 192.429688 C 304.382812 188.242188 301.464844 184.601562 297.449219 183.691406 Z M 297.085938 197.164062 C 297.085938 198.074219 296.355469 198.800781 295.445312 198.800781 L 291.796875 198.800781 C 291.246094 202.441406 289.789062 205.902344 287.597656 208.816406 L 290.152344 211.363281 C 290.699219 211.910156 290.699219 213 290.152344 213.730469 L 286.6875 217.1875 C 286.320312 217.554688 285.957031 217.734375 285.59375 217.734375 C 285.226562 217.734375 284.679688 217.554688 284.496094 217.1875 L 281.945312 214.640625 C 279.023438 216.644531 275.558594 218.097656 271.910156 218.828125 L 271.910156 222.46875 C 271.910156 223.378906 271.179688 224.105469 270.269531 224.105469 L 265.34375 224.105469 C 264.429688 224.105469 263.699219 223.378906 263.699219 222.46875 L 263.699219 218.828125 C 260.050781 218.28125 256.585938 216.824219 253.667969 214.640625 L 251.113281 217.1875 C 250.746094 217.554688 250.382812 217.734375 250.019531 217.734375 C 249.652344 217.734375 249.105469 217.554688 248.921875 217.1875 L 245.457031 213.730469 C 244.910156 213.183594 244.910156 212.089844 245.457031 211.363281 L 248.011719 208.816406 C 246.003906 205.902344 244.542969 202.441406 243.816406 198.800781 L 240.167969 198.800781 C 239.253906 198.800781 238.523438 198.074219 238.523438 197.164062 L 238.523438 192.246094 C 238.523438 191.335938 239.253906 190.609375 240.167969 190.609375 L 243.816406 190.609375 C 244.363281 186.96875 245.820312 183.507812 248.011719 180.597656 L 245.457031 178.046875 C 244.910156 177.5 244.910156 176.410156 245.457031 175.679688 L 248.921875 172.222656 C 249.289062 171.855469 249.652344 171.675781 250.019531 171.675781 C 250.382812 171.675781 250.929688 171.855469 251.113281 172.222656 L 253.667969 174.769531 C 256.585938 172.765625 260.050781 171.3125 263.699219 170.582031 L 263.699219 166.941406 C 263.699219 166.03125 264.429688 165.304688 265.34375 165.304688 L 270.269531 165.304688 C 271.179688 165.304688 271.910156 166.03125 271.910156 166.941406 L 271.910156 170.582031 C 275.558594 171.128906 279.023438 172.585938 281.945312 174.769531 L 284.496094 172.222656 C 284.863281 171.855469 285.226562 171.675781 285.59375 171.675781 C 285.957031 171.675781 286.503906 171.855469 286.6875 172.222656 L 290.152344 175.679688 C 290.699219 176.226562 290.699219 177.320312 290.152344 178.046875 L 287.597656 180.597656 C 289.605469 183.507812 291.066406 186.96875 291.796875 190.609375 L 295.445312 190.609375 C 296.355469 190.609375 297.085938 191.335938 297.085938 192.246094 Z M 297.085938 197.164062 " fill-opacity="1" fill-rule="nonzero"/></g><path fill="#153462" d="M 267.894531 182.050781 C 260.78125 182.050781 255.125 187.695312 255.125 194.796875 C 255.125 201.894531 260.78125 207.539062 267.894531 207.539062 C 275.011719 207.539062 280.667969 201.894531 280.667969 194.796875 C 280.667969 187.695312 275.011719 182.050781 267.894531 182.050781 Z M 267.894531 200.257812 C 264.792969 200.257812 262.421875 197.890625 262.421875 194.796875 C 262.421875 191.703125 264.792969 189.335938 267.894531 189.335938 C 270.996094 189.335938 273.371094 191.703125 273.371094 194.796875 C 273.371094 197.890625 270.996094 200.257812 267.894531 200.257812 Z M 267.894531 200.257812 " fill-opacity="1" fill-rule="nonzero"/><g clip-path="url(#89ea755573)"><path fill="#153462" d="M 262.421875 245.773438 C 267.347656 245.773438 271.363281 242.675781 272.820312 238.308594 C 272.09375 238.488281 271.179688 238.488281 270.269531 238.488281 L 265.34375 238.488281 C 264.613281 238.488281 263.882812 238.488281 263.335938 238.308594 C 262.96875 238.308594 262.789062 238.488281 262.421875 238.488281 L 101.882812 238.488281 C 99.875 238.488281 98.234375 236.851562 98.234375 234.847656 L 98.234375 188.96875 C 97.136719 189.152344 95.859375 189.335938 94.585938 189.335938 C 93.308594 189.335938 92.03125 189.152344 90.9375 188.96875 L 90.9375 234.847656 C 90.9375 240.855469 95.859375 245.773438 101.882812 245.773438 L 167.558594 245.773438 L 167.558594 258.515625 L 156.613281 258.515625 C 154.605469 258.515625 152.964844 260.152344 152.964844 262.15625 C 152.964844 264.160156 154.605469 265.796875 156.613281 265.796875 L 207.691406 265.796875 C 209.699219 265.796875 211.339844 264.160156 211.339844 262.15625 C 211.339844 260.152344 209.699219 258.515625 207.691406 258.515625 L 196.746094 258.515625 L 196.746094 245.773438 Z M 189.449219 258.515625 L 174.855469 258.515625 L 174.855469 245.773438 L 189.449219 245.773438 Z M 189.449219 258.515625 " fill-opacity="1" fill-rule="nonzero"/></g><path fill="#153462" d="M 270.269531 151.101562 C 271.363281 151.101562 272.273438 151.285156 273.371094 151.46875 L 273.371094 132.898438 C 273.371094 126.890625 268.445312 121.972656 262.421875 121.972656 L 123.957031 121.972656 C 124.6875 124.339844 125.234375 126.707031 125.414062 129.257812 L 262.421875 129.257812 C 264.429688 129.257812 266.070312 130.894531 266.070312 132.898438 L 266.070312 151.101562 Z M 270.269531 151.101562 " fill-opacity="1" fill-rule="nonzero"/><g clip-path="url(#2783dafb9b)"><path fill="#153462" d="M 81.996094 152.921875 L 81.996094 169.125 C 81.996094 176.226562 87.652344 182.050781 94.585938 182.050781 C 101.515625 182.050781 107.171875 176.226562 107.171875 169.125 L 107.171875 152.921875 C 114.105469 148.554688 118.300781 140.726562 118.300781 132.167969 C 118.300781 122.15625 112.460938 113.234375 103.339844 109.410156 C 102.246094 109.046875 100.96875 109.046875 99.875 109.777344 C 98.78125 110.503906 98.234375 111.597656 98.234375 112.871094 L 98.234375 131.078125 L 90.9375 131.078125 L 90.9375 112.871094 C 90.9375 111.597656 90.386719 110.503906 89.292969 109.777344 C 88.199219 109.046875 86.921875 109.046875 85.828125 109.410156 C 76.707031 113.054688 70.867188 121.972656 70.867188 132.167969 C 70.867188 140.726562 75.0625 148.554688 81.996094 152.921875 Z M 83.636719 119.425781 L 83.636719 130.894531 C 83.636719 134.898438 86.921875 138.175781 90.9375 138.175781 L 98.234375 138.175781 C 102.246094 138.175781 105.53125 134.898438 105.53125 130.894531 L 105.53125 119.425781 C 108.996094 122.519531 111.003906 127.253906 111.003906 132.167969 C 111.003906 138.722656 107.535156 144.546875 101.882812 147.460938 C 100.605469 148.007812 99.875 149.28125 99.875 150.738281 L 99.875 169.125 C 99.875 172.222656 97.503906 174.769531 94.585938 174.769531 C 91.664062 174.769531 89.292969 172.222656 89.292969 169.125 L 89.292969 150.738281 C 89.292969 149.464844 88.5625 148.191406 87.285156 147.460938 C 81.632812 144.546875 78.164062 138.722656 78.164062 132.167969 C 78.164062 127.253906 80.171875 122.703125 83.636719 119.425781 Z M 83.636719 119.425781 " fill-opacity="1" fill-rule="nonzero"/></g></svg>