<svg xmlns="http://www.w3.org/2000/svg" xmlns:xlink="http://www.w3.org/1999/xlink" width="500" zoomAndPan="magnify" viewBox="0 0 375 374.999991" height="500" preserveAspectRatio="xMidYMid meet" version="1.0"><defs><g/></defs><g fill="#ffffff" fill-opacity="1"><g transform="translate(37.777297, 290.97476)"><g><path d="M 94.554688 -114.394531 C 79.871094 -121.351562 65.441406 -121.351562 64.152344 -121.351562 C 51.015625 -121.351562 38.390625 -129.078125 38.390625 -144.023438 C 38.390625 -160.511719 49.984375 -169.015625 64.152344 -169.015625 C 77.550781 -169.015625 88.886719 -162.058594 89.402344 -147.371094 C 89.402344 -146.601562 90.691406 -145.3125 92.238281 -145.3125 L 124.441406 -145.3125 C 126.246094 -145.3125 127.535156 -146.601562 127.277344 -147.371094 C 126.761719 -182.414062 99.449219 -206.117188 64.152344 -206.117188 C 31.175781 -206.117188 0 -182.671875 0 -144.023438 C 0 -120.0625 12.109375 -101.769531 33.492188 -91.980469 C 48.4375 -85.023438 62.351562 -85.023438 64.152344 -85.023438 C 75.746094 -84.507812 89.917969 -75.230469 89.917969 -60.03125 C 89.917969 -46.375 77.808594 -37.101562 64.152344 -37.101562 C 64.152344 -37.101562 64.152344 -37.101562 63.894531 -37.101562 L 63.894531 0 C 64.152344 0 64.152344 0 64.152344 0 C 97.132812 0 128.050781 -21.382812 128.050781 -60.03125 C 128.050781 -84.25 116.199219 -104.347656 94.554688 -114.394531 Z M 94.554688 -114.394531 "/></g></g></g><g fill="#ffffff" fill-opacity="1"><g transform="translate(172.265363, 290.97476)"><g><path d="M 39.417969 -116.714844 L 39.417969 -203.796875 C 39.417969 -204.828125 38.390625 -206.117188 36.585938 -206.117188 L 2.835938 -206.117188 C 1.289062 -206.117188 0 -204.828125 0 -203.796875 L 0 -116.714844 Z M 154.070312 -206.117188 L 120.320312 -206.117188 C 118.773438 -206.117188 117.484375 -204.828125 117.484375 -203.796875 L 117.484375 -77.035156 L 39.417969 -77.035156 L 39.417969 -77.292969 L 0 -77.292969 L 0 -2.320312 C 0 -1.289062 1.289062 0 2.835938 0 L 36.585938 0 C 38.390625 0 39.417969 -1.289062 39.417969 -2.320312 L 39.417969 -38.648438 L 117.484375 -38.648438 L 117.484375 -2.320312 C 117.484375 -1.289062 118.773438 0 120.320312 0 L 154.070312 0 C 155.875 0 156.90625 -1.289062 156.90625 -2.320312 L 156.90625 -203.796875 C 156.90625 -204.828125 155.875 -206.117188 154.070312 -206.117188 Z M 154.070312 -206.117188 "/></g></g></g><g fill="#ffffff" fill-opacity="1"><g transform="translate(346.788498, 287.253379)"><g><path d="M -3.53125 -11.171875 C -2.332031 -11.171875 -1.414062 -10.722656 -0.78125 -9.828125 C -0.144531 -8.941406 0.171875 -7.640625 0.171875 -5.921875 C 0.171875 -4.347656 -0.101562 -3.113281 -0.65625 -2.21875 C -1.21875 -1.332031 -2.0625 -0.765625 -3.1875 -0.515625 L -3.59375 -2.984375 C -2.945312 -3.148438 -2.476562 -3.476562 -2.1875 -3.96875 C -1.894531 -4.457031 -1.75 -5.128906 -1.75 -5.984375 C -1.75 -7.773438 -2.289062 -8.671875 -3.375 -8.671875 C -3.71875 -8.671875 -4.003906 -8.566406 -4.234375 -8.359375 C -4.460938 -8.160156 -4.648438 -7.875 -4.796875 -7.5 C -4.953125 -7.125 -5.132812 -6.40625 -5.34375 -5.34375 C -5.5625 -4.425781 -5.734375 -3.789062 -5.859375 -3.4375 C -5.992188 -3.082031 -6.148438 -2.757812 -6.328125 -2.46875 C -6.503906 -2.175781 -6.71875 -1.925781 -6.96875 -1.71875 C -7.21875 -1.519531 -7.507812 -1.363281 -7.84375 -1.25 C -8.175781 -1.132812 -8.5625 -1.078125 -9 -1.078125 C -10.101562 -1.078125 -10.945312 -1.492188 -11.53125 -2.328125 C -12.125 -3.160156 -12.421875 -4.367188 -12.421875 -5.953125 C -12.421875 -7.472656 -12.179688 -8.613281 -11.703125 -9.375 C -11.222656 -10.132812 -10.4375 -10.625 -9.34375 -10.84375 L -9.015625 -8.359375 C -9.535156 -8.234375 -9.925781 -7.972656 -10.1875 -7.578125 C -10.457031 -7.191406 -10.59375 -6.632812 -10.59375 -5.90625 C -10.59375 -4.351562 -10.109375 -3.578125 -9.140625 -3.578125 C -8.828125 -3.578125 -8.566406 -3.660156 -8.359375 -3.828125 C -8.160156 -3.992188 -7.988281 -4.238281 -7.84375 -4.5625 C -7.695312 -4.882812 -7.519531 -5.539062 -7.3125 -6.53125 C -7.0625 -7.707031 -6.828125 -8.546875 -6.609375 -9.046875 C -6.398438 -9.554688 -6.15625 -9.957031 -5.875 -10.25 C -5.601562 -10.550781 -5.269531 -10.78125 -4.875 -10.9375 C -4.476562 -11.09375 -4.03125 -11.171875 -3.53125 -11.171875 Z M -3.53125 -11.171875 "/></g></g></g><g fill="#ffffff" fill-opacity="1"><g transform="translate(346.788498, 269.769101)"><g><path d="M 0 -9.84375 L -3.125 -8.75 L -3.125 -4.09375 L 0 -3 L 0 -0.4375 L -12.234375 -4.90625 L -12.234375 -7.921875 L 0 -12.375 Z M -10.34375 -6.421875 L -10.15625 -6.359375 C -9.945312 -6.304688 -9.707031 -6.238281 -9.4375 -6.15625 C -9.175781 -6.070312 -7.710938 -5.570312 -5.046875 -4.65625 L -5.046875 -8.171875 L -8.5625 -6.96875 L -9.75 -6.59375 Z M -10.34375 -6.421875 "/></g></g></g><g fill="#ffffff" fill-opacity="1"><g transform="translate(346.788498, 251.304591)"><g><path d="M -10.25 -3.75 L -6.46875 -3.75 L -6.46875 -10.015625 L -4.484375 -10.015625 L -4.484375 -3.75 L 0 -3.75 L 0 -1.1875 L -12.234375 -1.1875 L -12.234375 -10.203125 L -10.25 -10.203125 Z M -10.25 -3.75 "/></g></g></g><g fill="#ffffff" fill-opacity="1"><g transform="translate(346.788498, 234.817893)"><g><path d="M 0 -9.59375 L -4.640625 -6.75 L -4.640625 -3.75 L 0 -3.75 L 0 -1.1875 L -12.234375 -1.1875 L -12.234375 -7.296875 C -12.234375 -8.753906 -11.914062 -9.878906 -11.28125 -10.671875 C -10.65625 -11.472656 -9.757812 -11.875 -8.59375 -11.875 C -7.726562 -11.875 -6.984375 -11.628906 -6.359375 -11.140625 C -5.742188 -10.648438 -5.335938 -9.992188 -5.140625 -9.171875 L 0 -12.46875 Z M -8.484375 -9.296875 C -9.660156 -9.296875 -10.25 -8.539062 -10.25 -7.03125 L -10.25 -3.75 L -6.640625 -3.75 L -6.640625 -7.109375 C -6.640625 -7.816406 -6.800781 -8.359375 -7.125 -8.734375 C -7.445312 -9.109375 -7.898438 -9.296875 -8.484375 -9.296875 Z M -8.484375 -9.296875 "/></g></g></g><g fill="#ffffff" fill-opacity="1"><g transform="translate(346.788498, 216.353384)"><g><path d="M 0 -1.1875 L -12.234375 -1.1875 L -12.234375 -3.75 L 0 -3.75 Z M 0 -1.1875 "/></g></g></g><g fill="#ffffff" fill-opacity="1"><g transform="translate(346.788498, 205.78278)"><g><path d="M 0 -1.1875 L -12.234375 -1.1875 L -12.234375 -3.75 L -1.984375 -3.75 L -1.984375 -10.3125 L 0 -10.3125 Z M 0 -1.1875 "/></g></g></g><g fill="#ffffff" fill-opacity="1"><g transform="translate(346.788498, 189.29608)"><g><path d="M 0 -1.1875 L -12.234375 -1.1875 L -12.234375 -3.75 L 0 -3.75 Z M 0 -1.1875 "/></g></g></g><g fill="#ffffff" fill-opacity="1"><g transform="translate(346.788498, 178.72547)"><g><path d="M 0 -9.84375 L -3.125 -8.75 L -3.125 -4.09375 L 0 -3 L 0 -0.4375 L -12.234375 -4.90625 L -12.234375 -7.921875 L 0 -12.375 Z M -10.34375 -6.421875 L -10.15625 -6.359375 C -9.945312 -6.304688 -9.707031 -6.238281 -9.4375 -6.15625 C -9.175781 -6.070312 -7.710938 -5.570312 -5.046875 -4.65625 L -5.046875 -8.171875 L -8.5625 -6.96875 L -9.75 -6.59375 Z M -10.34375 -6.421875 "/></g></g></g><g fill="#ffffff" fill-opacity="1"><g transform="translate(346.788498, 160.260956)"><g/></g></g><g fill="#ffffff" fill-opacity="1"><g transform="translate(346.788498, 149.690347)"><g><path d="M 0 -9.078125 L -5.25 -9.078125 L -5.25 -3.75 L 0 -3.75 L 0 -1.1875 L -12.234375 -1.1875 L -12.234375 -3.75 L -7.359375 -3.75 L -7.359375 -9.078125 L -12.234375 -9.078125 L -12.234375 -11.640625 L 0 -11.640625 Z M 0 -9.078125 "/></g></g></g><g fill="#ffffff" fill-opacity="1"><g transform="translate(346.788498, 131.225832)"><g><path d="M 0 -1.1875 L -12.234375 -1.1875 L -12.234375 -3.75 L 0 -3.75 Z M 0 -1.1875 "/></g></g></g><g fill="#ffffff" fill-opacity="1"><g transform="translate(346.788498, 120.655223)"><g><path d="M -6.203125 -12.09375 C -4.941406 -12.09375 -3.84375 -11.84375 -2.90625 -11.34375 C -1.96875 -10.851562 -1.25 -10.15625 -0.75 -9.25 C -0.25 -8.34375 0 -7.304688 0 -6.140625 L 0 -1.1875 L -12.234375 -1.1875 L -12.234375 -5.625 C -12.234375 -7.675781 -11.710938 -9.265625 -10.671875 -10.390625 C -9.628906 -11.523438 -8.140625 -12.09375 -6.203125 -12.09375 Z M -6.203125 -9.515625 C -7.515625 -9.515625 -8.515625 -9.171875 -9.203125 -8.484375 C -9.898438 -7.804688 -10.25 -6.832031 -10.25 -5.5625 L -10.25 -3.75 L -1.984375 -3.75 L -1.984375 -5.921875 C -1.984375 -7.023438 -2.359375 -7.898438 -3.109375 -8.546875 C -3.867188 -9.191406 -4.898438 -9.515625 -6.203125 -9.515625 Z M -6.203125 -9.515625 "/></g></g></g><g fill="#ffffff" fill-opacity="1"><g transform="translate(346.788498, 102.190709)"><g><path d="M 0 -9.84375 L -3.125 -8.75 L -3.125 -4.09375 L 0 -3 L 0 -0.4375 L -12.234375 -4.90625 L -12.234375 -7.921875 L 0 -12.375 Z M -10.34375 -6.421875 L -10.15625 -6.359375 C -9.945312 -6.304688 -9.707031 -6.238281 -9.4375 -6.15625 C -9.175781 -6.070312 -7.710938 -5.570312 -5.046875 -4.65625 L -5.046875 -8.171875 L -8.5625 -6.96875 L -9.75 -6.59375 Z M -10.34375 -6.421875 "/></g></g></g></svg>